<?xml version="1.0"?>
<svg xmlns="http://www.w3.org/2000/svg" xmlns:xlink="http://www.w3.org/1999/xlink" version="1.1" id="Capa_1" x="0px" y="0px" viewBox="0 0 422 422" style="enable-background:new 0 0 422 422;" xml:space="preserve" width="512px" height="512px"><g><script xmlns="" class="active-path" style=""/><script xmlns="" class="active-path"/><g>
	<g>
		<path d="M355.046,109.297c-5.718-10.696-16.872-17.363-29-17.336H280v61.591c0,6.86,6.023,12.409,12.885,12.409h92.491    L355.046,109.297z" data-original="#000000" class="active-path" fill="#673AB6"/>
	</g>
</g><g>
	<g>
		<circle cx="88.85" cy="316.661" r="39.38" data-original="#000000" class="active-path" fill="#673AB6"/>
	</g>
</g><g>
	<g>
		<path d="M311.494,277.281c-21.751,0-39.383,17.632-39.383,39.383c0,21.751,17.632,39.383,39.383,39.383    c21.751,0,39.383-17.632,39.383-39.383c0-0.001,0-0.002,0-0.003C350.851,294.922,333.233,277.306,311.494,277.281z" data-original="#000000" class="active-path" fill="#673AB6"/>
	</g>
</g><g>
	<g>
		<path d="M414.9,207.907l-20.359-25.946H292.885c-15.685,0-28.885-12.726-28.885-28.409v-75.75    c0.146-6.397-4.922-11.7-11.318-11.846c-0.227-0.005-0.454-0.004-0.682,0.005H12.752C5.891,65.961,0,70.941,0,77.802v218.94    c0,6.861,5.891,12.219,12.752,12.219h21.233c4.123-30.3,32.028-51.521,62.328-47.399c24.655,3.355,44.044,22.744,47.399,47.399    h112.917c4.125-30.301,32.032-51.52,62.333-47.396c24.653,3.356,44.04,22.743,47.396,47.396h42.891    c6.861,0,12.752-5.358,12.752-12.219v-68.605C421.933,220.794,419.437,213.681,414.9,207.907z" data-original="#000000" class="active-path" fill="#673AB6"/>
	</g>
</g></g> </svg>
