<svg id="Capa_1" enable-background="new 0 0 512 512" height="512" viewBox="0 0 512 512" width="512" xmlns="http://www.w3.org/2000/svg"><g><path d="m512 256c0 84.43-40.88 159.32-103.92 205.95-42.52 31.45-92.921 17.63-149.871 17.63-18.06 0-35.68-1.87-52.68-5.42-36.62-7.67-72.569 9.27-101.609-12.21 0-.01-.01-.01-.01-.01-63.04-46.63-103.91-121.51-103.91-205.94 0-141.38 114.62-256 256-256s256 114.62 256 256z" fill="#ffbb16"/><g><path d="m436.64 136.26c0 17.91-.32 35.89-.92 53.91-3.03 89.2-13.2 179.9-27.64 271.78-42.52 31.45-95.13 50.05-152.08 50.05s-109.57-18.6-152.09-50.06c-14.43-91.87-24.6-182.58-27.62-271.77-.61-18.02-.92-36-.92-53.91 120.42-14.25 240.85-14.25 361.27 0z" fill="#524798"/><path d="m190.26 136.26c.01 120.77 5.26 244.51 13.06 370.32-36.62-7.67-70.36-23.15-99.4-44.63-17.35-110.46-28.55-219.23-28.56-325.69 60.22-7.13 120.43-10.69 180.64-10.69-21.92 0-43.83 3.56-65.74 10.69z" fill="#453d81"/><path d="m308.074.796c-34.556-1.061-69.595-1.061-104.14 0-31.645.977-56.651 26.498-56.913 58.111-.126 15.834 1.639 31.876 5.253 47.689l2.648 11.599 11.883.62c29.597 1.566 59.393 2.354 89.2 2.354 29.796 0 59.603-.788 89.189-2.354l11.883-.62 2.648-11.599c3.625-15.802 5.39-31.845 5.253-47.689-.264-31.614-25.259-57.134-56.904-58.111zm-127.339 87.151c-1.534-9.603-2.269-19.248-2.196-28.777.126-14.615 11.704-26.413 26.361-26.865 16.957-.525 34.02-.788 51.103-.788 17.062 0 34.146.263 51.093.788 1.24.042 2.448.157 3.635.357 12.902 2.101 22.62 13.123 22.725 26.508.084 9.53-.651 19.174-2.196 28.777-10.328.472-20.677.84-31.047 1.114-39.807 1.061-79.805.683-119.478-1.114z" fill="#f1f4f6"/><path d="m341.043 79.468c-7.407 29.376-31.561 16.022-40.828 9.592 10.37-.273 20.719-.641 31.047-1.114 1.544-9.603 2.28-19.248 2.196-28.777-.105-13.385-9.824-24.407-22.725-26.508 15.937.001 39.556 10.182 30.31 46.807z" fill="#d0e2e7"/><g><path d="m163.576 108.719c-3.616-16.537-5.383-33.324-5.25-49.893.214-26.79 16.666-49.399 39.735-57.56-28.814 3.733-50.792 28.013-51.039 57.638-.132 15.838 1.634 31.884 5.25 47.692l2.651 11.596 10.848.574z" fill="#d0e2e7"/></g><path d="m436.641 136.256c0 17.913-.326 35.89-.924 53.919h-359.427c-.609-18.029-.924-36.006-.924-53.919 120.425-14.247 240.85-14.247 361.275 0z" fill="#453d81"/><path d="m402.218 71.92h-292.436c-28.992 0-52.494 23.502-52.494 52.494v44.388h397.424v-44.388c0-28.992-23.502-52.494-52.494-52.494z" fill="#f1f4f6"/><path d="m218.772 71.922c-28.998 0-52.501 23.503-52.501 52.49v44.39h-108.983v-44.39c0-28.987 23.503-52.49 52.501-52.49z" fill="#d0e2e7"/><path d="m373.033 476.524c-2.371.545-4.875.691-7.427.388-11.996-1.423-20.565-12.298-19.142-24.294l22.412-188.966c1.423-11.996 12.298-20.565 24.294-19.142 2.552.303 4.953 1.03 7.13 2.115-8.766 1.991-15.746 9.31-16.866 18.754l-22.412 188.966c-1.12 9.443 3.955 18.192 12.011 22.179z" fill="#453d81"/><path d="m170.92 473.122c-2.179 1.081-4.581 1.806-7.133 2.105-11.998 1.407-22.861-7.176-24.268-19.174l-22.162-188.995c-1.407-11.998 7.176-22.861 19.174-24.268 2.552-.299 5.057-.15 7.427.398-8.062 3.976-13.148 12.718-12.041 22.163l22.162 188.995c1.108 9.445 8.078 16.773 16.841 18.776z" fill="#524798"/><path d="m270.605 475.61c-2.29.82-4.76 1.26-7.33 1.26-12.08 0-21.87-9.79-21.87-21.87v-190.29c0-12.08 9.79-21.87 21.87-21.87 2.57 0 5.04.44 7.33 1.26-8.47 3.01-14.54 11.1-14.54 20.61v190.29c0 9.51 6.07 17.6 14.54 20.61z" fill="#453d81"/></g><path d="m454.712 180.802h-397.424c-6.627 0-12-5.373-12-12s5.373-12 12-12h397.424c6.627 0 12 5.373 12 12s-5.373 12-12 12z" fill="#d0e2e7"/></g></svg>